<svg id="Layer_1" enable-background="new 0 0 512 512" height="512" viewBox="0 0 512 512" width="512" xmlns="http://www.w3.org/2000/svg"><path d="m476.828 335.415c8.53-24.906 13.168-51.618 13.168-79.415 0-135.309-109.69-244.998-244.998-244.998-55.958 0-107.523 18.774-148.771 50.348 24.703 41.57 145.895 225.644 380.601 274.065z" fill="#85d249"/><path d="m476.828 335.415c8.53-24.906 13.168-51.618 13.168-79.415 0-15.348-1.425-30.361-4.125-44.927-9.287-.476-17.553 4.696-21.47 12.521-1.74 3.475-5.762 5.049-9.448 3.817-2.792-.933-5.838-1.341-9.034-1.09-2.82.221-5.511.978-7.968 2.169-4.12 1.997-9.003 1.998-13.123.001-2.457-1.192-5.149-1.948-7.97-2.17-3.195-.25-6.24.157-9.034 1.091-3.684 1.232-7.706-.342-9.445-3.816-3.932-7.854-12.244-13.04-21.573-12.521-3.392.189-6.566 1.115-9.38 2.611-3.413 1.815-7.665.865-9.883-2.301-4.361-6.225-11.742-10.121-19.889-9.668-7.2.401-13.43 4.111-17.298 9.572-2.246 3.17-6.42 4.295-9.841 2.453-2.841-1.529-6.052-2.476-9.486-2.667-9.328-.519-17.639 4.666-21.571 12.519-1.74 3.475-5.762 5.049-9.448 3.817-2.793-.933-5.838-1.341-9.034-1.09-2.821.221-5.512.978-7.969 2.169-1.46.708-3.018 1.152-4.602 1.358 58.674 45.032 134.439 86.178 228.423 105.567z" fill="#60b550"/><path d="m459.388 329.274c-8.614-1.714-15.813-8.358-17.78-17.491-.724-3.363-.661-6.71.062-9.853.871-3.786-1.317-7.514-4.969-8.841-6.289-2.285-11.516-7.312-13.807-14.149-2.592-7.737-.787-15.885 4.062-21.738 2.467-2.977 2.257-7.329-.396-10.14-2.188-2.318-3.92-5.134-5-8.355-1.311-3.913-1.493-7.928-.728-11.698-1.288-.344-2.615-.582-3.975-.688-3.195-.25-6.24.157-9.034 1.091-3.684 1.232-7.706-.342-9.445-3.816-3.932-7.854-12.244-13.04-21.573-12.521-3.392.189-6.566 1.115-9.38 2.611-3.413 1.815-7.665.865-9.883-2.301-4.361-6.225-11.742-10.121-19.889-9.668-7.2.401-13.43 4.111-17.298 9.572-2.246 3.17-6.42 4.295-9.841 2.453-2.841-1.529-6.052-2.476-9.486-2.667-9.328-.519-17.639 4.666-21.571 12.519-1.74 3.475-5.762 5.049-9.448 3.817-2.793-.933-5.838-1.341-9.034-1.09-2.821.221-5.512.978-7.969 2.169-1.46.708-3.018 1.152-4.602 1.358 56.051 43.019 127.711 82.476 215.94 102.823-1.088-1.709-2.83-2.974-4.956-3.397z" fill="#389f4d"/><path d="m73.539 430.979c44.189 43.306 104.7 70.019 171.459 70.019s127.27-26.714 171.459-70.019z" fill="#6033a8"/><path d="m250.745 500.926c64.48-1.485 122.794-27.888 165.712-69.948h-165.179c31.16 10.952 31.723 59.46-.533 69.948z" fill="#4d2b8e"/><path d="m298.89 203.954c5.558 0 11.024.694 16.294 2.019v-7.768c0-6.6-5.4-12-12-12h-30.669c-6.6 0-12 5.4-12 12v5.749z" fill="#def2fe"/><path d="m303.015 199.205c0-4.801 2.864-8.956 6.963-10.871-1.935-1.339-4.276-2.129-6.794-2.129h-30.669c-6.6 0-12 5.4-12 12v5.749h38.375c1.381 0 2.757.043 4.125.128z" fill="#c5e2f2"/><path d="m293.129 134.394c.77 1.178 1.221 2.583 1.221 4.095v34.39c26.891 2.473 43.636 19.522 45.717 20.77 0-2.259 0-77.873 0-80.132-2.12 1.27-19.302 18.823-46.938 20.877z" fill="#def2fe"/><path d="m294.35 172.878c26.891 2.473 43.636 19.522 45.717 20.77 0-.988 0-15.987 0-32.75-2.081-.3-18.826-4.399-45.717-4.994z" fill="#c5e2f2"/><path d="m281.35 138.489c0-1.428.406-2.758 1.098-3.894h-8.905c-10.45 0-18.921 8.471-18.921 18.921s8.471 18.921 18.921 18.921h7.806v-33.948z" fill="#f73d7f"/><path d="m256.544 145.25c-1.218 2.5-1.921 5.298-1.921 8.266 0 10.45 8.471 18.921 18.921 18.921h7.806v-16.532h-7.806c-7.482 0-13.93-4.354-17-10.655z" fill="#d21463"/><path d="m482.104 319.745-77.42-22.532c-4.996-1.794-9.303-5.112-12.314-9.485l-38.459-55.857c-12.465-18.105-33.04-28.919-55.021-28.919h-44.729c-6.244 0-11.305 5.062-11.305 11.306v134.499h154.782l-.002 23.639c5.504-1.825 11.386-2.813 17.495-2.813 16.397 0 31.161 7.117 41.372 18.421h42.424l1.073-1.719v-42.695c0-11.041-7.292-20.759-17.896-23.845z" fill="#fc6dae"/><path d="m392.37 287.729-38.459-55.857c-12.465-18.105-33.04-28.919-55.021-28.919h-44.729c-6.244 0-11.305 5.062-11.305 11.306v134.499 64.004h94.642c4.555-30.168 26.745-54.619 55.697-62.509 1.166-.318 2.231-.837 3.185-1.494h.022c.26-.18 1.136-.904 1.237-1h-.025c2.003-1.888 3.234-4.531 3.234-7.429v-44.876c-3.362-1.888-6.271-4.519-8.478-7.725z" fill="#f73d7f"/><path d="m298.835 214.259c0-5.11 3.393-9.425 8.047-10.824-2.635-.317-5.303-.482-7.993-.482h-44.729c-6.244 0-11.305 5.062-11.305 11.306v134.499 64.004h55.979v-64.004-134.499z" fill="#d21463"/><path d="m370.399 291.085-32.96-47.871c-1.251-1.817-2.62-3.53-4.09-5.13-3.009-3.273-7.23-5.167-11.676-5.167h-45.217c-4.749 0-8.599 3.85-8.599 8.599v45.337c0 4.749 3.85 8.599 8.599 8.599h91.648c2.244.001 3.568-2.518 2.295-4.367z" fill="#6033a8"/><path d="m291.689 286.854v-45.337c0-4.749 3.85-8.599 8.599-8.599h-23.833c-4.75 0-8.599 3.85-8.599 8.599v45.337c0 4.749 3.85 8.599 8.599 8.599h23.833c-4.749 0-8.599-3.85-8.599-8.599z" fill="#502d92"/><path d="m335.318 295.453h32.785c2.245 0 3.569-2.519 2.296-4.368l-16.266-23.624s3.685 20.111-18.815 27.992z" fill="#4d2b8e"/><path d="m292.818 327.584h-17.5c-4.143 0-7.5-3.358-7.5-7.5s3.357-7.5 7.5-7.5h17.5c4.143 0 7.5 3.358 7.5 7.5s-3.358 7.5-7.5 7.5z" fill="#def2fe"/><path d="m502.475 340.084h-8.7c-5.239 0-9.525 4.286-9.525 9.525v27.153c0 5.239 4.286 9.525 9.525 9.525h8.7c5.239 0 9.525-4.286 9.525-9.525v-27.153c0-5.239-4.286-9.525-9.525-9.525z" fill="#ffbd58"/><path d="m502.475 364.168h-8.7c-5.239 0-9.525-4.286-9.525-9.525v22.118c0 5.239 4.286 9.525 9.525 9.525h8.7c5.239 0 9.525-4.286 9.525-9.525v-22.118c0 5.239-4.286 9.525-9.525 9.525z" fill="#ef952c"/><path d="m388.377 274.966h-15.652c-4.288 0-7.797 3.508-7.797 7.797v25.382c0 4.288 3.508 7.797 7.797 7.797h15.652c9.683 0 17.606-7.923 17.606-17.606v-5.763c0-9.685-7.923-17.607-17.606-17.607z" fill="#def2fe"/><path d="m388.377 296.343h-15.652c-4.288 0-7.797-3.508-7.797-7.797v19.597c0 4.288 3.508 7.797 7.797 7.797h15.652c9.683 0 17.606-7.923 17.606-17.606v-5.762c0-2.453-.512-4.791-1.428-6.917-2.703 6.269-8.948 10.688-16.178 10.688z" fill="#c5e2f2"/><path d="m295.349 138.489v74.021c0 4.143-3.358 7.5-7.5 7.5s-7.5-3.357-7.5-7.5v-74.021c0-4.143 3.358-7.5 7.5-7.5 4.143 0 7.5 3.357 7.5 7.5z" fill="#fcd68b"/><path d="m287.849 179.105c-4.142 0-7.5-3.358-7.5-7.5v40.904c0 4.143 3.358 7.5 7.5 7.5s7.5-3.357 7.5-7.5v-40.904c0 4.143-3.357 7.5-7.5 7.5z" fill="#ffbd58"/><path d="m228.354 147.097h-202.86c-2.464 4.957-4.744 10.02-6.876 15.16l-12.034 150.274c2.949 12.468 6.834 24.575 11.604 36.227h225.099v-186.727c.001-8.248-6.685-14.934-14.933-14.934z" fill="#def2fe"/><path d="m85.068 319.584-77.264-2.12c2.776 10.731 6.246 21.184 10.385 31.294h53.036c-1.347-18.99 13.843-29.174 13.843-29.174z" fill="#c5e2f2"/><path d="m17.779 347.758c.16.396.329.787.492 1.183 1.543 3.258 22.788 36.026 40.915 63.822h184.101v-65.004h-225.508z" fill="#65ddff"/><path d="m26.761 362.68h46.754v-3.409c-1.5-4.149-2.208-7.986-2.353-11.514h-53.383c.157.389.323.774.482 1.163.54 1.156 3.749 6.312 8.5 13.76z" fill="#56c2ff"/><path d="m202.946 193.205h-194.809c-5.3 20.042-8.137 41.086-8.137 62.795 0 19.477 2.285 38.419 6.58 56.584h196.366c6.6 0 12-5.4 12-12v-95.38c0-6.599-5.4-11.999-12-11.999z" fill="#a05af2"/><path d="m202.946 193.205h-57.46c6.6 0 12 5.4 12 12v95.38c0 6.6-5.4 12-12 12h57.46c6.6 0 12-5.4 12-12v-95.38c0-6.6-5.4-12-12-12z" fill="#8444e0"/><path d="m6.58 312.584h196.366c6.6 0 12-5.4 12-12v-12.518h-212.857c1.087 8.312 2.593 16.49 4.491 24.518z" fill="#8444e0"/><path d="m214.946 300.584v-12.518h-57.46v12.518c0 6.6-5.4 12-12 12h57.46c6.6 0 12-5.4 12-12z" fill="#6033a8"/><path d="m169.507 268.966h-97.641c-6.6 0-12 5.4-12 12v31.618h121.642v-31.618c-.001-6.6-5.401-12-12.001-12z" fill="#bc92ff"/><path d="m132.686 268.966h-60.82c-6.6 0-12 5.4-12 12v31.618h60.821v-31.618c-.001-6.6 5.399-12 11.999-12z" fill="#ad78f9"/><path d="m202.946 186.205h-192.842c-1.369 4.613-2.617 9.278-3.717 14h196.559c2.757 0 5 2.243 5 5v95.38c0 2.757-2.243 5-5 5h-197.923c.97 4.72 2.09 9.384 3.328 14h194.595c10.477 0 19-8.523 19-19v-95.38c0-10.477-8.524-19-19-19z" fill="#c5e2f2"/><path d="m412.012 346.382c-38.276 0-70.074 28.257-75.638 65.004h23.116c5.722-24.703 27.891-43.177 54.309-43.177 16.397 0 31.161 7.117 41.372 18.422h24.192c-12.943-23.944-38.277-40.249-67.351-40.249z" fill="#a05af2"/><path d="m388.34 371.625c-12.035-3.458-8.272-15.501-7.235-18.254.063-.168.103-.341.136-.515-23.536 10.383-40.894 32.288-44.867 58.531h23.115c3.912-16.891 15.517-30.866 30.909-38.018-.387-.825-1.119-1.474-2.058-1.744z" fill="#8444e0"/><path d="m32.711 347.427c-4.957 0-9.8.49-14.497 1.396 2.812 6.862 5.922 13.57 9.322 20.104 1.708-.16 3.433-.251 5.174-.251 26.501 0 48.692 18.77 53.999 43.711h21.595c-5.563-36.723-37.342-64.96-75.593-64.96z" fill="#8444e0"/><path d="m73.515 359.271c-11.817-7.49-25.808-11.844-40.804-11.844-4.957 0-9.8.49-14.497 1.396 2.812 6.862 5.922 13.57 9.322 20.104 1.708-.16 3.433-.251 5.174-.251 11.292 0 21.794 3.417 30.549 9.257-6.206-15.809 9.742-18.577 10.256-18.662z" fill="#6033a8"/><path d="m500 386.287h-45.575c9.088 10.061 14.632 23.381 14.632 37.974 0 5.081-.682 10.003-1.941 14.692h32.884c6.6 0 12-5.4 12-12v-28.667c0-6.599-5.4-11.999-12-11.999z" fill="#ad78f9"/><path d="m360.271 410.761h-274.485c1.062 4.329 1.637 8.848 1.637 13.5s-.575 9.171-1.637 13.5h274.485c-1.062-4.329-1.637-8.848-1.637-13.5s.575-9.17 1.637-13.5z" fill="#8444e0"/><path d="m32.711 367.55c-1.94 0-3.858.099-5.748.29 3.028 5.891 6.312 11.627 9.793 17.228l7.38 9.305c10.726 4.114 18.676 13.834 20.27 25.559l7.273 9.171c4.706 4.71 9.585 9.248 14.66 13.566 1.989-5.777 3.084-11.965 3.084-18.408 0-31.27-25.442-56.711-56.712-56.711z" fill="#40277c"/><path d="m36.658 384.945c10.017 16.151 21.847 31.058 35.227 44.419.217-1.672.34-3.372.34-5.102.001-20.457-15.625-37.33-35.567-39.317z" fill="#def2fe"/><path d="m413.345 367.55c-31.27 0-56.711 25.441-56.711 56.711s25.441 56.711 56.711 56.711 56.711-25.441 56.711-56.711c.001-31.27-25.44-56.711-56.711-56.711zm0 88.726c-17.653 0-32.014-14.362-32.014-32.014 0-17.653 14.362-32.014 32.014-32.014 17.653 0 32.014 14.362 32.014 32.014.001 17.652-14.361 32.014-32.014 32.014z" fill="#40277c"/><path d="m413.345 480.973c15.347 0 29.281-6.138 39.501-16.075-9.994-.006-11.775-6.105-11.94-9.788-.066-1.472-1.145-2.703-2.596-2.96-2.462-.436-4.107-1.465-5.213-2.722-5.446 4.284-12.303 6.848-19.753 6.848-17.653 0-32.014-14.362-32.014-32.014 0-12.222 6.887-22.862 16.981-28.254-.864-2.118-.617-4.444-.172-6.201.384-1.52-.336-3.103-1.762-3.755-5.69-2.604-6.096-7.72-5.7-10.939.115-.933-.188-1.813-.762-2.475-19.609 8.935-33.282 28.707-33.282 51.624.001 31.27 25.442 56.711 56.712 56.711z" fill="#2c1f66"/><ellipse cx="413.345" cy="424.261" fill="#c5e2f2" rx="32.014" ry="32.014" transform="matrix(.97 -.244 .244 .97 -91.16 113.897)"/><path d="m413.345 456.276c7.45 0 14.307-2.565 19.753-6.848-1.584-1.8-2.05-4.071-2.138-5.764-.075-1.431-1.115-2.615-2.515-2.918-28.72-6.203-25.899-28.933-23.946-36.935.363-1.488-.391-3.03-1.798-3.635-2.401-1.031-3.724-2.538-4.389-4.168-10.094 5.393-16.981 16.033-16.981 28.254 0 17.652 14.362 32.014 32.014 32.014z" fill="#acd1e5"/><path d="m413.346 463.776c-21.789 0-39.515-17.726-39.515-39.514s17.726-39.515 39.515-39.515c21.788 0 39.514 17.726 39.514 39.515 0 21.788-17.726 39.514-39.514 39.514zm0-64.029c-13.518 0-24.515 10.997-24.515 24.515 0 13.517 10.997 24.514 24.515 24.514 13.517 0 24.514-10.997 24.514-24.514 0-13.518-10.997-24.515-24.514-24.515z" fill="#def2fe"/><path d="m373.831 424.262c0 21.788 17.726 39.514 39.515 39.514 10.35 0 19.778-4.005 26.83-10.54-.463-.555-1.112-.954-1.864-1.087-5.989-1.06-7.201-5.61-7.351-8.486-.034-.65-.274-1.243-.65-1.731-4.408 4.233-10.385 6.844-16.965 6.844-13.518 0-24.515-10.997-24.515-24.514 0-10.279 6.362-19.095 15.353-22.732-.325-.586-.83-1.074-1.483-1.354-5.523-2.371-5.349-7.26-4.561-10.369.17-.673.113-1.355-.116-1.966-14.201 5.995-24.193 20.062-24.193 36.421z" fill="#c5e2f2"/><path d="m24.186 149.73h166.932c-4.171-47.547-39.83-86.198-85.944-94.915-34.518 24.035-62.569 56.713-80.988 94.915z" fill="#8deaff"/><path d="m24.186 149.73h85.851c5.318-19.149 16.103-24.788 22.032-26.445 2.236-.625 3.922-2.529 4.133-4.842.787-8.658 6.716-11.078 10.981-11.685 2.419-.344 4.343-2.146 4.85-4.536 1.753-8.253 8.419-10.024 12.408-10.326.873-.066 1.708-.31 2.469-.693-15.46-18.531-37.104-31.733-61.736-36.389-34.518 24.036-62.569 56.714-80.988 94.916z" fill="#65ddff"/><path d="m24.186 149.73h144.131c-3.725-42.466-39.477-75.889-82.894-75.889-1.471 0-2.932.046-4.384.122-23.534 21.211-42.941 46.913-56.853 75.767z" fill="#65ddff"/><path d="m85.423 73.841c-1.471 0-2.932.046-4.384.122-23.535 21.211-42.941 46.913-56.853 75.767h85.851c5.318-19.149 16.103-24.788 22.032-26.445 2.236-.625 3.922-2.529 4.133-4.842.787-8.658 6.716-11.078 10.981-11.685 1.252-.178 2.366-.753 3.225-1.591-15.261-19.075-38.712-31.326-64.985-31.326z" fill="#56c2ff"/><path d="m85.423 95.46c-12.573 0-24.264 3.822-33.99 10.354-10.247 13.188-19.174 27.449-26.587 42.589-.06.443-.131.882-.181 1.327h121.517c-3.435-30.491-29.366-54.27-60.759-54.27z" fill="#56c2ff"/><path d="m85.423 95.46c-12.573 0-24.264 3.822-33.991 10.354-10.247 13.188-19.174 27.449-26.587 42.589-.06.443-.131.882-.181 1.327h85.372c5.318-19.149 16.103-24.788 22.032-26.445 1.277-.357 2.362-1.14 3.108-2.169-11.099-15.519-29.26-25.656-49.753-25.656z" fill="#42a7f4"/><path d="m132.174 134.645v-15.684c-.208.024-.42.038-.635.038h-92.234c-.215 0-.426-.014-.635-.038v15.684c0 5.69 1.99 10.935 5.303 15.085h82.898c3.313-4.15 5.303-9.395 5.303-15.085z" fill="#f2a470"/><path d="m131.54 118.999h-92.235c-.215 0-.426-.014-.635-.038v15.684c0 2.331.35 4.58.972 6.717.728-4.092 4.295-7.201 8.596-7.201h74.368c4.301 0 7.868 3.109 8.596 7.201.622-2.137.972-4.386.972-6.716v-15.684c-.208.023-.419.037-.634.037z" fill="#e58d5c"/><path d="m117.343 134.645v-15.684c-.142.024-.287.038-.433.038h-62.974c-.147 0-.291-.014-.433-.038v15.684c0 5.69 1.359 10.935 3.62 15.085h56.6c2.261-4.15 3.62-9.395 3.62-15.085z" fill="#fcb98b"/><path d="m53.502 134.161h63.841v-15.162h-.433-62.974-.434z" fill="#f2a470"/><path d="m97.343 134.645v-15.684c-.053.024-.107.038-.162.038h-23.517c-.055 0-.109-.014-.162-.038v15.684c0 5.69.507 10.935 1.352 15.085h21.137c.845-4.15 1.352-9.395 1.352-15.085z" fill="#f2a470"/><path d="m73.502 134.161h23.841v-15.162h-.162-23.517-.162z" fill="#e58d5c"/><path d="m25.494 147.097c-2.537 5.104-4.902 10.308-7.086 15.606h184.398c-.554-8.677-7.821-15.606-16.632-15.606z" fill="#def2fe"/><path d="m74.394 147.097h-48.9c-2.537 5.104-4.902 10.308-7.086 15.606h56.08c-7.791-1.809-8.165-13.86-.094-15.606z" fill="#c5e2f2"/><path d="m13.359 242.954c13.212 0 24.021-11.433 24.021-25.407v-17.811h-30.878c-2.995 12.745-4.988 25.874-5.907 39.3 3.704 2.476 8.082 3.918 12.764 3.918z" fill="#ea8015"/><path d="m37.38 199.736v17.811c0 13.973 10.809 25.407 24.021 25.407 13.211 0 24.021-11.433 24.021-25.407v-17.811z" fill="#d21463"/><path d="m85.423 199.736v17.811c0 13.973 10.81 25.407 24.021 25.407 13.211 0 24.021-11.433 24.021-25.407v-17.811z" fill="#ef952c"/><path d="m133.465 199.736v17.811c0 13.973 10.809 25.407 24.021 25.407 13.212 0 24.021-11.433 24.021-25.407v-17.811z" fill="#d21463"/><path d="m181.507 199.736v17.811c0 13.973 10.809 25.407 24.021 25.407h.001c13.211 0 24.021-11.433 24.021-25.407v-17.811z" fill="#ef952c"/><path d="m37.381 199.736 6.658-37.563h-25.414c-5.007 12.066-9.08 24.615-12.123 37.563z" fill="#ef952c"/><path d="m44.038 162.173-6.657 37.563h48.042v-37.563z" fill="#f73d7f"/><path d="m60.098 182.278 1.389-7.836c1.258-7.098 7.427-12.27 14.636-12.27h-32.085l-6.658 37.563h37.353c-9.246.001-16.249-8.352-14.635-17.457z" fill="#d21463"/><path d="m210.353 166.939c-1.289-2.908-4.053-4.766-7.09-4.766h-35.754l13.999 37.563h48.042z" fill="#ffbd58"/><path d="m167.509 162.173 13.998 37.563h-48.042l-6.658-37.563z" fill="#f73d7f"/><path d="m126.807 162.173 6.658 37.563h-48.042v-37.563z" fill="#ffbd58"/><path d="m351.428 115.572v76.021c0 4.143-3.358 7.5-7.5 7.5s-7.5-3.357-7.5-7.5v-76.021c0-4.143 3.358-7.5 7.5-7.5s7.5 3.357 7.5 7.5z" fill="#65ddff"/><path d="m343.928 165.343c-4.142 0-7.5-3.357-7.5-7.5v33.75c0 4.143 3.358 7.5 7.5 7.5s7.5-3.357 7.5-7.5v-33.75c0 4.142-3.358 7.5-7.5 7.5z" fill="#56c2ff"/><path d="m70.214 109.414c-14.522-6.514-21.659-13.126-23.155-19.532h-.822s-8.495 9.113-2.822 19.532z" fill="#d21463"/><path d="m69.393 109.414h37.973c-13.448-8.019-28.917-14.949-38.432-19.179-15.336-6.817-15.884-17.161-15.884-17.161s-9.585 4.937-6.812 16.808c1.496 6.406 8.633 13.018 23.155 19.532z" fill="#fc6dae"/><path d="m74.049 92.522c-1.836-.828-3.561-1.597-5.115-2.288-15.336-6.817-15.884-17.161-15.884-17.161s-9.585 4.937-6.813 16.808c1.497 6.406 8.634 13.019 23.156 19.532h4.452c-.106-.558-.318-1.103-.669-1.63-4.104-6.157-1.725-10.923.132-13.277.458-.578.702-1.274.741-1.984z" fill="#f73d7f"/><path d="m68.934 90.235c9.515 4.23 24.984 11.16 38.432 19.179h22.694c-5.688-16.351-36.15-26.52-50.856-34.547-17.674-9.647-17.801-22.009-17.801-22.009s-12.324 7.523-8.353 20.217c-.001-.001.547 10.342 15.884 17.16z" fill="#f73d7f"/><path d="m73.727 90.819c-3.529-7.572 1.07-12.621 3.769-14.773.505-.402.877-.938 1.091-1.53-17.048-9.593-17.184-21.659-17.184-21.659s-12.324 7.523-8.353 20.217c0 0 .548 10.343 15.884 17.161 1.553.691 3.279 1.46 5.115 2.288.031-.576-.07-1.162-.322-1.704z" fill="#d21463"/><path d="m95.064 41.338c-6.574-3.609-9.229-7.21-10.302-9.452-.428-.726-1.04-1.014-1.626-1.1l-1.065 1.398c-2.039 5.459-4.876 18.521 9.046 28.841 9.822 7.281 24.253 13.418 31.788 21.508 4.194-20.663-17.589-35.566-27.841-41.195z" fill="#f73d7f"/><path d="m95.064 41.338c-6.574-3.609-9.229-7.21-10.301-9.452-.428-.726-1.04-1.013-1.626-1.099l-1.065 1.398c-1.813 4.853-4.245 15.715 5.018 25.318.339-.686.46-1.48.315-2.278-1.611-8.864 7.658-13.887 7.659-13.887z" fill="#d21463"/><path d="m91.938 61.026c-15.237-11.295-10.399-25.876-8.504-30.177-1.007-.276-2.04.157-2.041.158-5.271 3.004-16.848 10.703-19.99 21.85 0 0 .127 12.363 17.801 22.009 12.516 6.831 36.444 15.214 46.801 27.638l.332-.531c10.897-19.938-18.1-28.865-34.399-40.947z" fill="#fc6dae"/><path d="m85.796 58.927c.778-.473 1.303-1.207 1.534-2.041-9.513-10.473-5.566-22.247-3.896-26.037-1.007-.276-2.04.157-2.041.158-5.271 3.004-16.848 10.703-19.99 21.85 0 0 .136 12.066 17.184 21.659.191-.528.259-1.1.169-1.668-1.205-7.657 3.889-12.006 7.04-13.921z" fill="#f73d7f"/><path d="m131.54 119.487h-92.235c-3.032 0-5.49-2.458-5.49-5.491 0-3.032 2.458-5.49 5.49-5.49h92.234c3.032 0 5.49 2.458 5.49 5.49.001 3.033-2.457 5.491-5.489 5.491z" fill="#fed9b8"/><path d="m70.036 113.996c0-3.032 2.458-5.49 5.49-5.49h-36.221c-3.033 0-5.491 2.458-5.491 5.49s2.458 5.49 5.491 5.49h36.221c-3.032.001-5.49-2.457-5.49-5.49z" fill="#fcc49d"/><path d="m85.068 305.584h-80.045c.97 4.72 2.091 9.384 3.328 14h76.717c-7.333-7.333 0-14 0-14z" fill="#acd1e5"/></svg>